# xmcd
#
# Track frame offsets: 
#        150
#        28687
#        53627
#        80177
#        102667
#        126590
#        164142
#        188832
#        215457
#
# Disc length: 3246 seconds
#
# Revision: 1
# Processed by: cddbd v1.5.2PL0 Copyright (c) Steve Scherf et al.
# Submitted via: ExactAudioCopyFreeDBPlugin 1.0
#
DISCID=890cac09
DTITLE=笠原弘子 - Precious Time LIVE at THE THEATER SUNMALL'94(DISC1)
DYEAR=1995
DGENRE=JPop
TTITLE0=コンディショングリーン
TTITLE1=Cafe Paradise
TTITLE2=遠い夏の休日
TTITLE3=永遠の想 い-恋にNO RETURN-約束の土地へ
TTITLE4=Distance
TTITLE5=いつかきみと…
TTITLE6=YOU&ME
TTITLE7=ひまわり
TTITLE8=君を守りたい
EXTD=YEAR: 95.1/25
EXTT0=
EXTT1=
EXTT2=
EXTT3=
EXTT4=
EXTT5=
EXTT6=
EXTT7=
EXTT8=
PLAYORDER=
